<svg version="1.2" xmlns="http://www.w3.org/2000/svg" viewBox="0 0 174 174" width="174" height="174"><style>.a{fill:#ffcb55}.b{fill:#ffee94}.c{fill:#fffff8}.d{fill:#ecd17c}.e{fill:#4c3213}.f{fill:#fdfdf7}.g{fill:#7f4e14}</style><circle class="a" cx="86.8" cy="86.9" r="86.3"/><circle class="b" cx="83.7" cy="81.3" r="79.7"/><path class="c" d="m145.1 63.9c0 12.9-10.5 23.4-23.4 23.4-12.9 0-23.4-10.5-23.4-23.4z"/><path class="d" d="m98.4 63.9c0-12.9 10.4-23.4 23.3-23.4 12.9 0 23.4 10.5 23.4 23.4z"/><path class="e" d="m135.5 63.9c0 6.6-5.3 11.9-11.8 11.9-6.6 0-11.8-5.3-11.8-11.9z"/><path class="f" d="m105.8 63.8c3 5.2 10.4 5.3 13.5 0.2z"/><path class="c" d="m76.1 63.9c0 12.9-10.4 23.4-23.3 23.4-12.9 0-23.4-10.5-23.4-23.4z"/><path class="d" d="m29.4 63.9c0-12.9 10.5-23.4 23.4-23.4 12.9 0 23.3 10.5 23.3 23.4z"/><path class="e" d="m66.6 63.9c0 6.6-5.3 11.9-11.9 11.9-6.5 0-11.8-5.3-11.8-11.9z"/><path class="f" d="m36.8 63.8c3 5.2 10.4 5.3 13.5 0.2z"/><path class="g" d="m145.9 37.2c0.3 0 0.4 0.2 0.4 0.5l-2.2 15.6c0 0.3-0.4 0.5-0.6 0.3l-42-18.6c-0.3-0.1-0.4-0.5-0.2-0.7l6.5-7.6c0.3-0.4 37.7 10.3 38.1 10.5z"/><path class="g" d="m67.8 29.6l4.8 7.9c0.3 0.5 0 1.1-0.6 1.3-49.9 12.6-49.9 13.3-49.8 11.5 1.3-15.2 0.8-15.9 2.1-16l42.6-5.1c0.4 0 0.7 0.1 0.9 0.4z"/><path class="g" d="m43 107.9c31.1-6.1 55.1-7.1 92.7 0l-0.4 2c-36.1-5.6-58.4-5.3-91.9 0z"/></svg>