<svg version="1.2" xmlns="http://www.w3.org/2000/svg" viewBox="0 0 174 174" width="174" height="174"><style>.a{fill:#ffca51}.b{fill:#ffed91}.c{fill:#7f4e12}.d{fill:#7f4e14}</style><circle class="a" cx="87.2" cy="86.9" r="86.3"/><circle class="b" cx="84.1" cy="81.3" r="79.7"/><path class="c" d="m144.7 38.6c0.3 0 0.4 0.3 0.3 0.5l-3.1 15.4c0 0.3-0.4 0.5-0.6 0.4l-40.8-21.2c-0.3-0.2-0.3-0.5-0.1-0.8l6.9-7.1c0.3-0.4 37 12.6 37.4 12.8z"/><path class="c" d="m52.7 25.9l7.3 5.8c0.4 0.3 0.4 1-0.1 1.3-37.9 26.5-37.6 27.2-38.2 25.5l-4.8-14.2c-0.2-0.4 0-0.8 0.4-1l34.5-17.5c0.3-0.1 0.6-0.1 0.9 0.1z"/><path class="c" d="m29 70.4l-3-2.6c12-13.5 32.6-11.9 46.1-0.6l-2.6 3.1c-11.6-9.8-29.9-11.9-40.5 0.1z"/><path class="c" d="m96.7 68.3l-3-2.6c12-13.6 32.6-12 46-0.6l-2.6 3c-11.6-9.8-29.8-11.8-40.4 0.2z"/><path class="d" d="m39.3 107.3c8.7 38.2 80.2 36.7 89.6 0l1.3 0.3c-1.2 7.1-8.5 21.1-24.7 27.3-12.4 4.8-30 5.3-43.3 0.2-14.3-5.3-23.1-18.2-24.2-27.5z"/></svg>