<svg version="1.2" xmlns="http://www.w3.org/2000/svg" viewBox="0 0 174 174" width="174" height="174"><style>.a{fill:#ffca51}.b{fill:#ffed91}.c{fill:#7f4e12}.d{fill:#7f4e14}</style><circle class="a" cx="87.3" cy="86.9" r="86.3"/><circle class="b" cx="84.2" cy="81.3" r="79.7"/><path class="c" d="m132.3 25c0.2-0.1 0.5 0 0.6 0.2l7.8 13.7c0.1 0.2 0 0.6-0.3 0.6l-44.7 10.7c-0.3 0.1-0.6-0.1-0.6-0.4l0.6-10c0-0.4 36.2-14.7 36.6-14.8z"/><path class="c" d="m70 41.7l-0.3 9.3c0 0.5-0.6 0.9-1.1 0.7l-42.8-14.4c-0.5-0.2-0.7-0.8-0.4-1.2l8.6-12.4c0.2-0.3 0.7-0.4 1-0.2l34.6 17.5c0.3 0.1 0.4 0.4 0.4 0.7z"/><path class="c" d="m25.7 59.2c0.2 15.4 28.1 16.5 30.1 0l-1.2-0.2c0-0.1-0.2 0.5-0.7 1.4-5.2 10.3-23 10-26.9-1.4z"/><path class="c" d="m100 60.9c3.8 11.4 21.5 12.2 26.4-0.1l1.3 0.3c-1.9 16.6-28.9 15.1-29 0z"/><path class="d" d="m63 105.7l-2.6-1c5.1-12.7 19.9-14.5 25.3 0l-2.6 1c-4.5-12-15.8-10.4-20.1 0z"/></svg>